<svg width="59" height="59" viewBox="0 0 59 59" fill="none" xmlns="http://www.w3.org/2000/svg">
<path fill-rule="evenodd" clip-rule="evenodd" d="M2.45825 6.96996C2.45825 5.77344 2.93357 4.62594 3.77963 3.77988C4.62569 2.93381 5.77319 2.4585 6.96971 2.4585H51.9419C52.5348 2.45753 53.1222 2.57353 53.6702 2.79985C54.2183 3.02617 54.7163 3.35836 55.1359 3.77742C55.5554 4.19647 55.8881 4.69416 56.115 5.24198C56.3419 5.7898 56.4586 6.377 56.4582 6.96996V51.9421C56.4589 52.5352 56.3426 53.1226 56.116 53.6707C55.8894 54.2188 55.557 54.7168 55.1377 55.1363C54.7185 55.5557 54.2206 55.8884 53.6727 56.1153C53.1247 56.3422 52.5374 56.4588 51.9443 56.4585H6.96971C6.37705 56.4585 5.7902 56.3417 5.24268 56.1148C4.69517 55.888 4.19772 55.5554 3.77876 55.1363C3.3598 54.7171 3.02754 54.2194 2.80096 53.6718C2.57438 53.1242 2.45793 52.5372 2.45825 51.9446V6.96996ZM23.8324 23.0472H31.1445V26.7192C32.2 24.6083 34.9 22.7085 38.9573 22.7085C46.7358 22.7085 48.5792 26.9131 48.5792 34.6278V48.9181H40.7074V36.3852C40.7074 31.9916 39.652 29.5125 36.9716 29.5125C33.253 29.5125 31.7066 32.1855 31.7066 36.3852V48.9181H23.8324V23.0472ZM10.3324 48.5819H18.2066V22.7085H10.3324V48.5794V48.5819ZM19.3333 14.2698C19.3481 14.944 19.2281 15.6143 18.9804 16.2415C18.7326 16.8687 18.3621 17.4402 17.8905 17.9222C17.419 18.4043 16.8559 18.7873 16.2343 19.0488C15.6127 19.3103 14.9451 19.445 14.2708 19.445C13.5964 19.445 12.9288 19.3103 12.3072 19.0488C11.6856 18.7873 11.1225 18.4043 10.651 17.9222C10.1794 17.4402 9.80886 16.8687 9.56112 16.2415C9.31337 15.6143 9.19341 14.944 9.20825 14.2698C9.23739 12.9464 9.78356 11.6871 10.7298 10.7615C11.676 9.83584 12.9471 9.31753 14.2708 9.31753C15.5944 9.31753 16.8655 9.83584 17.8117 10.7615C18.7579 11.6871 19.3041 12.9464 19.3333 14.2698Z" fill="#6BA150"/>
</svg>
