<svg width="61" height="61" viewBox="0 0 61 61" fill="none" xmlns="http://www.w3.org/2000/svg">
<g clip-path="url(#clip0_29_58)">
<mask id="mask0_29_58" style="mask-type:alpha" maskUnits="userSpaceOnUse" x="0" y="0" width="61" height="61">
<path d="M0 0H61V61H0V0Z" fill="white"/>
</mask>
<g mask="url(#mask0_29_58)">
<path fill-rule="evenodd" clip-rule="evenodd" d="M30.5 0C13.6488 0 0 13.6487 0 30.5C0 43.9962 8.73063 55.3956 20.8544 59.4369C22.3794 59.7037 22.9513 58.7887 22.9513 57.9881C22.9513 57.2637 22.9131 54.8619 22.9131 52.3075C15.25 53.7181 13.2675 50.4394 12.6575 48.7237C12.3144 47.8469 10.8275 45.14 9.53125 44.4156C8.46375 43.8438 6.93875 42.4331 9.49312 42.395C11.895 42.3569 13.6106 44.6062 14.1825 45.5212C16.9275 50.1344 21.3119 48.8381 23.0656 48.0375C23.3325 46.055 24.1331 44.7206 25.01 43.9581C18.2238 43.1956 11.1325 40.565 11.1325 28.8987C11.1325 25.5819 12.3144 22.8369 14.2588 20.7019C13.9538 19.9394 12.8863 16.8131 14.5638 12.6194C14.5638 12.6194 17.1181 11.8187 22.9513 15.7456C25.3913 15.0594 27.9837 14.7162 30.5763 14.7162C33.1688 14.7162 35.7612 15.0594 38.2013 15.7456C44.0344 11.7806 46.5888 12.6194 46.5888 12.6194C48.2663 16.8131 47.1988 19.9394 46.8938 20.7019C48.8381 22.8369 50.02 25.5437 50.02 28.8987C50.02 40.6031 42.8906 43.1956 36.1044 43.9581C37.21 44.9112 38.1631 46.7412 38.1631 49.6006C38.1631 53.68 38.125 56.9587 38.125 57.9881C38.125 58.7887 38.6969 59.7419 40.2219 59.4369C46.2766 57.3927 51.5378 53.5013 55.2651 48.3104C58.9925 43.1195 60.9982 36.8905 61 30.5C61 13.6487 47.3513 0 30.5 0Z" fill="#6BA150"/>
</g>
</g>
<defs>
<clipPath id="clip0_29_58">
<rect width="61" height="61" fill="white"/>
</clipPath>
</defs>
</svg>
