<svg width="20" height="20" viewBox="0 0 20 20" fill="none" xmlns="http://www.w3.org/2000/svg">
<path d="M16.002 0.997009H3.999C3.20338 0.999385 2.44104 1.31657 1.87854 1.87925C1.31604 2.44194 0.999112 3.20439 0.997002 4.00001V16.002C0.999901 16.7972 1.31715 17.559 1.87953 18.1212C2.44192 18.6834 3.20381 19.0004 3.999 19.003H16.002C16.797 19.0001 17.5587 18.683 18.1208 18.1208C18.683 17.5587 19.0001 16.797 19.003 16.002V4.00001C19.0006 3.20464 18.6838 2.44249 18.1215 1.87989C17.5593 1.31729 16.7974 0.99991 16.002 0.997009V0.997009ZM14.362 13.644C14.21 14.004 13.973 14.324 13.669 14.571C13.3095 14.8502 12.9003 15.0586 12.463 15.185C11.973 15.336 11.389 15.414 10.713 15.414H5.888V4.90901H10.991C11.934 4.90901 12.691 5.12201 13.258 5.55501C13.827 5.99101 14.112 6.63701 14.112 7.51301C14.112 8.04101 13.982 8.49601 13.723 8.87001C13.464 9.24301 13.093 9.53401 12.612 9.73801V9.77201C13.254 9.90701 13.749 10.21 14.076 10.684C14.403 11.157 14.569 11.753 14.569 12.473C14.569 12.878 14.491 13.261 14.344 13.62L14.364 13.641V13.644H14.362ZM12.278 11.055C11.969 10.773 11.539 10.636 10.981 10.636H7.737V13.912H10.99C11.544 13.912 11.981 13.768 12.288 13.477C12.596 13.188 12.752 12.776 12.752 12.248C12.747 11.73 12.596 11.329 12.288 11.055H12.274H12.278V11.055ZM11.827 8.93601C12.126 8.68501 12.271 8.32301 12.271 7.85201C12.271 7.32601 12.14 6.95001 11.874 6.73601C11.61 6.52201 11.228 6.41001 10.728 6.41001H7.727V9.30801H10.728C11.164 9.30901 11.538 9.18101 11.827 8.93601V8.93601Z" fill="#FFFFED"/>
</svg>
